HIERARCHY
ROOT Elbow
{
	OFFSET	0.00	0.00	0.00
	CHANNELS 6 Xposition Yposition Zposition Zrotation Xrotation Yrotation
	JOINT L_Wrist
	{
		OFFSET	 0.208349	 0.000000	 0.000000
		CHANNELS 3 Zrotation Xrotation Yrotation
		JOINT L_index_Proximal
		{
			OFFSET	 0.093499	 0.010637	-0.002084
			CHANNELS 3 Zrotation Xrotation Yrotation
			JOINT L_index_b
			{
				OFFSET	 0.033152	 0.000000	 0.000000
				CHANNELS 3 Zrotation Xrotation Yrotation
				JOINT L_index_c
				{
					OFFSET	 0.018651	 0.000000	 0.000000
					CHANNELS 3 Zrotation Xrotation Yrotation
					End Site
					{
						OFFSET	 0.018651	 0.000000	 0.000000
					}
				}
			}
		}
		JOINT L_middle_Proximal
		{
			OFFSET	 0.090632	-0.006115	-0.003750
			CHANNELS 3 Zrotation Xrotation Yrotation
			JOINT L_middle_b
			{
				OFFSET	 0.037195	 0.000000	 0.000000
				CHANNELS 3 Zrotation Xrotation Yrotation
				JOINT L_middle_c
				{
					OFFSET	 0.021943	 0.000000	 0.000000
					CHANNELS 3 Zrotation Xrotation Yrotation
					End Site
					{
						OFFSET	 0.021943	 0.000000	 0.000000
					}
				}
			}
		}
		JOINT L_pinky_Proximal
		{
			OFFSET	 0.074015	-0.035449	-0.000417
			CHANNELS 3 Zrotation Xrotation Yrotation
			JOINT L_pinky_b
			{
				OFFSET	 0.027285	 0.000000	 0.000000
				CHANNELS 3 Zrotation Xrotation Yrotation
				JOINT L_pinky_c
				{
					OFFSET	 0.015093	 0.000000	 0.000000
					CHANNELS 3 Zrotation Xrotation Yrotation
					End Site
					{
						OFFSET	 0.015093	 0.000000	 0.000000
					}
				}
			}
		}
		JOINT L_ring_Proximal
		{
			OFFSET	 0.082801	-0.021859	-0.003750
			CHANNELS 3 Zrotation Xrotation Yrotation
			JOINT L_ring_b
			{
				OFFSET	 0.034478	 0.000000	 0.000000
				CHANNELS 3 Zrotation Xrotation Yrotation
				JOINT L_ring_c
				{
					OFFSET	 0.021377	 0.000000	 0.000000
					CHANNELS 3 Zrotation Xrotation Yrotation
					End Site
					{
						OFFSET	 0.021377	 0.000000	 0.000000
					}
				}
			}
		}
		JOINT L_thumb_Proximal
		{
			OFFSET	 0.030306	 0.018528	 0.004584
			CHANNELS 3 Zrotation Xrotation Yrotation
			JOINT L_thumb_a
			{
				OFFSET	 0.038520	 0.000000	 0.000000
				CHANNELS 3 Zrotation Xrotation Yrotation
				JOINT L_thumb_b
				{
					OFFSET	 0.026310	 0.000000	 0.000000
					CHANNELS 3 Zrotation Xrotation Yrotation
					End Site
					{
						OFFSET	 0.026310	 0.000000	 0.000000
					}
				}
			}
		}
	}
}
MOTION
Frames:    10
Frame Time: 0.01666667
 0.778951	-0.591344	 0.817588	-46.187220	-7.799641	-160.983800	-9.270468	-2.308984	-13.218840	-1.458990	 0.172402	-8.895568	-3.273777	 0.197096	-6.888637	 0.962574	-0.027775	-3.306181	-9.131577	-8.801648	-51.879750	 4.129071	-2.480000	-61.965740	 1.862760	-0.805611	-46.773120	-30.609590	-18.168690	-45.902370	 1.601891	-0.895966	-58.436120	 3.185586	-1.473329	-49.632190	-18.300090	-11.728950	-53.403600	 2.221925	-1.455286	-66.443160	 1.045583	-0.405609	-42.405130	 54.974720	 50.910790	-59.067310	-2.084794	 0.288819	-15.773160	-6.090306	 1.710703	-31.353160
 0.779195	-0.591246	 0.817254	-46.200700	-7.860382	-161.005700	-9.262057	-2.312520	-13.239580	-1.447705	 0.170983	-8.929971	-3.320263	 0.201219	-6.934201	 0.948468	-0.027418	-3.311548	-9.112878	-8.813591	-52.086540	 4.096272	-2.479294	-62.355740	 1.767439	-0.763348	-46.716300	-30.627080	-18.155800	-46.041260	 1.619962	-0.910504	-58.674670	 3.131877	-1.449809	-49.672270	-18.287080	-11.737790	-53.597230	 2.223060	-1.463916	-66.727200	 1.013133	-0.393259	-42.427440	 54.963310	 50.911600	-59.080000	-2.063402	 0.286242	-15.794060	-6.054729	 1.701927	-31.374840
 0.779038	-0.591112	 0.816952	-46.210190	-7.911139	-161.006400	-9.246718	-2.316368	-13.262030	-1.510783	 0.181424	-9.001209	-3.408575	 0.207977	-6.981192	 0.968509	-0.028068	-3.319645	-9.151750	-8.791952	-52.259920	 3.940475	-2.394756	-62.564460	 1.673735	-0.722592	-46.699230	-30.659600	-18.135630	-46.182940	 1.557971	-0.878886	-58.854690	 3.055610	-1.415394	-49.700210	-18.305490	-11.727980	-53.789670	 2.120078	-1.400126	-66.879360	 0.958155	-0.372151	-42.451910	 55.006490	 50.878070	-59.129980	-2.033294	 0.282005	-15.791160	-6.034210	 1.698527	-31.416690
 0.778900	-0.591205	 0.816921	-46.194360	-7.924257	-160.984900	-9.251715	-2.315188	-13.255140	-1.551286	 0.187964	-9.030840	-3.440337	 0.210071	-6.986426	 0.987735	-0.028708	-3.329647	-9.165154	-8.784633	-52.347560	 3.890360	-2.369632	-62.679210	 1.666017	-0.720028	-46.744300	-30.674680	-18.126490	-46.242500	 1.530124	-0.864387	-58.922990	 3.031130	-1.404248	-49.706590	-18.308750	-11.726530	-53.871260	 2.098090	-1.387484	-66.950510	 0.958806	-0.372629	-42.475120	 55.051600	 50.855110	-59.142700	-2.007803	 0.278458	-15.790320	-6.024374	 1.698180	-31.458970
 0.778681	-0.591503	 0.816789	-46.178490	-7.961260	-160.981500	-9.224489	-2.314039	-13.248450	-1.572160	 0.191224	-9.029968	-3.444597	 0.209342	-6.953649	 1.036296	-0.029881	-3.303248	-9.163569	-8.785777	-52.405280	 3.881913	-2.367043	-62.734220	 1.671539	-0.722348	-46.740280	-30.702590	-18.110870	-46.311260	 1.504284	-0.850731	-58.977690	 2.987976	-1.383859	-49.693960	-18.318860	-11.720940	-53.958780	 2.091014	-1.384221	-67.004580	 0.970592	-0.377122	-42.466660	 55.156200	 50.810130	-59.145910	-1.982558	 0.275023	-15.793980	-6.051975	 1.709291	-31.517460
 0.778322	-0.591816	 0.816702	-46.198200	-7.956803	-160.983800	-9.203102	-2.310029	-13.225010	-1.575617	 0.191667	-9.018618	-3.445482	 0.208132	-6.911790	 1.051644	-0.030072	-3.275607	-9.172509	-8.780743	-52.432160	 3.882738	-2.368461	-62.754060	 1.668548	-0.721348	-46.757500	-30.730190	-18.096680	-46.346520	 1.482313	-0.838595	-58.994290	 2.972431	-1.376454	-49.687560	-18.337120	-11.710300	-53.990830	 2.097775	-1.388762	-67.007100	 0.976966	-0.379486	-42.454750	 55.219290	 50.782500	-59.149410	-1.977918	 0.274410	-15.795870	-6.041113	 1.708475	-31.557020
 0.778154	-0.592037	 0.816697	-46.195310	-7.955127	-160.974100	-9.175687	-2.306803	-13.206210	-1.582124	 0.192427	-9.001072	-3.455510	 0.208285	-6.896658	 1.037879	-0.029556	-3.262151	-9.176284	-8.778562	-52.443720	 3.899038	-2.377665	-62.737960	 1.670016	-0.722307	-46.776100	-30.742270	-18.090320	-46.362710	 1.477701	-0.836038	-58.998420	 2.983108	-1.381073	-49.677210	-18.349450	-11.702990	-54.013970	 2.117448	-1.401784	-67.007020	 0.989655	-0.384316	-42.444980	 55.262750	 50.769410	-59.132180	-1.966989	 0.273072	-15.805730	-6.040646	 1.710044	-31.586890
 0.777844	-0.592430	 0.816529	-46.199680	-7.952223	-160.978600	-9.135021	-2.300281	-13.168200	-1.580831	 0.191529	-8.961236	-3.473982	 0.208171	-6.856405	 0.995438	-0.027696	-3.187160	-9.193728	-8.768947	-52.494730	 3.922557	-2.392516	-62.748630	 1.672075	-0.723383	-46.786580	-30.781550	-18.070300	-46.409820	 1.474368	-0.834540	-59.020360	 2.974978	-1.377150	-49.672150	-18.386350	-11.681610	-54.083220	 2.140533	-1.417603	-67.026890	 1.011800	-0.392907	-42.443880	 55.267420	 50.769570	-59.124000	-1.968790	 0.274099	-15.849860	-6.057990	 1.717736	-31.635590
 0.777630	-0.592593	 0.816506	-46.208990	-7.920765	-160.967600	-9.122659	-2.294255	-13.132990	-1.568977	 0.189355	-8.918373	-3.471719	 0.205822	-6.783724	 0.983386	-0.026882	-3.131435	-9.207769	-8.760735	-52.514700	 3.930114	-2.396932	-62.744380	 1.666606	-0.721313	-46.803730	-30.807490	-18.057390	-46.424640	 1.465382	-0.829566	-59.027020	 2.965871	-1.373072	-49.676620	-18.410840	-11.667000	-54.114240	 2.144437	-1.420295	-67.030660	 1.016751	-0.394874	-42.448430	 55.261530	 50.772840	-59.121990	-1.976366	 0.275565	-15.873660	-6.077908	 1.725337	-31.669480
 0.777306	-0.593083	 0.816759	-46.215310	-7.879792	-160.906000	-9.115873	-2.272162	-13.004190	-1.505734	 0.178045	-8.774282	-3.523162	 0.204983	-6.657825	 0.891945	-0.023719	-3.045375	-9.240417	-8.741861	-52.565580	 3.954703	-2.412816	-62.763110	 1.658423	-0.717997	-46.817290	-30.879850	-18.022540	-46.439510	 1.441864	-0.816609	-59.048540	 2.965685	-1.372870	-49.672920	-18.474430	-11.629040	-54.145930	 2.172784	-1.439005	-67.028170	 1.019962	-0.396220	-42.458370	 55.272920	 50.753920	-59.166790	-1.975967	 0.276777	-15.945920	-6.081919	 1.732230	-31.769580
